<svg xmlns="http://www.w3.org/2000/svg" version="1.1" xmlns:xlink="http://www.w3.org/1999/xlink" xmlns:svgjs="http://svgjs.dev/svgjs" width="128" height="128" viewBox="0 0 128 128"><g transform="matrix(0.8046875,0,0,0.8046875,12.437033844216273,11.960139391447363)"><svg viewBox="0 0 93 95" data-background-color="#ffffff" preserveAspectRatio="xMidYMid meet" height="130" width="128" xmlns="http://www.w3.org/2000/svg" xmlns:xlink="http://www.w3.org/1999/xlink"><g id="tight-bounds" transform="matrix(1,0,0,1,0.05685293677559855,-0.24049999999999727)"><svg viewBox="0 0 92.88629412644882 95.48100000000001" height="95.48100000000001" width="92.88629412644882"><g><svg viewBox="0 0 92.88629412644882 95.48100000000001" height="95.48100000000001" width="92.88629412644882"><g><svg viewBox="0 0 92.88629412644882 95.48100000000001" height="95.48100000000001" width="92.88629412644882"><g id="textblocktransform"><svg viewBox="0 0 92.88629412644882 95.48100000000001" height="95.48100000000001" width="92.88629412644882" id="textblock"><g><svg viewBox="0 0 92.88629412644882 95.48100000000001" height="95.48100000000001" width="92.88629412644882"><g><svg viewBox="0 0 92.88629412644882 95.48100000000001" height="95.48100000000001" width="92.88629412644882"><g><svg xmlns="http://www.w3.org/2000/svg" xmlns:xlink="http://www.w3.org/1999/xlink" version="1.1" x="0" y="0" viewBox="9 6.607 84.52 86.881" enable-background="new 0 0 99.21 99.21" xml:space="preserve" height="95.48100000000001" width="92.88629412644882" class="icon-icon-0" data-fill-palette-color="accent" id="icon-0"><path d="M23.706 41.28c7.597 1.779 17.713 2.866 28.828 2.866 17.174 0 31.972-2.592 38.769-6.329l2.217-14.813c-7.598 2.574-20.597 4.271-35.363 4.271-23.43 0-42.423-4.272-42.423-9.542 0-5.271 18.993-9.543 42.423-9.543 10.436 0 19.985 0.849 27.375 2.254C77.71 8.111 65.489 6.607 51.742 6.607 28.137 6.607 9 11.036 9 16.501c0 0.134 0.021 0.267 0.043 0.4H9.039l2.959 19.773c1.459 1.119 3.61 2.157 6.315 3.082-3.398 1.329-5.356 2.877-5.356 4.532 0 0.121 0.019 0.24 0.04 0.36h-0.004l2.672 17.827c1.561 1.194 4 2.384 7.109 3.463-4.18 1.34-6.65 2.984-6.65 4.763 0 0.11 0.018 0.22 0.036 0.33h-0.004L18.6 85.218c4.674 3.578 17.887 8.27 33.47 8.27 14.18 0 25.871-3.191 31.481-6.271l2.359-13.794c-6.273 2.122-20.173 6.16-32.365 6.16-19.345 0-31.862-3.522-31.862-7.866 0-1.61 2.161-3.108 5.861-4.355 6.696 1.72 15.312 2.907 24.73 2.907 15.511 0 28.876-3.392 35.012-6.762l2.004-14.938c-6.861 2.321-18.602 5.435-31.937 5.435-21.161 0-38.315-3.852-38.315-8.604C19.039 43.906 20.731 42.503 23.706 41.28z" fill="#5a4fdc" data-fill-palette-color="accent"></path></svg></g></svg></g></svg></g></svg></g></svg></g></svg></g><defs></defs></svg><rect width="92.88629412644882" height="95.48100000000001" fill="none" stroke="none" visibility="hidden"></rect></g></svg></g></svg>