<?xml version="1.0" encoding="UTF-8"?>
<svg xmlns="http://www.w3.org/2000/svg" xmlns:xlink="http://www.w3.org/1999/xlink" width="127px" height="24px" viewBox="0 0 158 24" version="1.1">
<defs>
<clipPath id="clip1">
  <path d="M 33.074219 3.320312 L 157.800781 3.320312 L 157.800781 20.707031 L 33.074219 20.707031 Z M 33.074219 3.320312 "/>
</clipPath>
<clipPath id="clip2">
  <path d="M 0.0078125 0.015625 L 23.320312 0.015625 L 23.320312 24 L 0.0078125 24 Z M 0.0078125 0.015625 "/>
</clipPath>
</defs>
<g id="surface1">
<path style=" stroke:none;fill-rule:nonzero;fill:rgb(100%,100%,100%);fill-opacity:1;" d="M 28.195312 1.582031 C 28.628906 1.582031 28.980469 2.289062 28.980469 3.164062 L 28.980469 20.863281 C 28.980469 21.738281 28.628906 22.445312 28.195312 22.445312 C 27.765625 22.445312 27.414062 21.738281 27.414062 20.863281 L 27.414062 3.164062 C 27.414062 2.289062 27.765625 1.582031 28.195312 1.582031 Z M 28.195312 1.582031 "/>
<g clip-path="url(#clip1)" clip-rule="nonzero">
<path style=" stroke:none;fill-rule:nonzero;fill:rgb(100%,100%,100%);fill-opacity:1;" d="M 37.640625 20.394531 L 33.078125 20.394531 L 33.078125 3.632812 L 37.640625 3.632812 L 37.640625 10.050781 L 43.417969 10.050781 L 43.417969 3.632812 L 47.980469 3.632812 L 47.980469 20.394531 L 43.417969 20.394531 L 43.417969 13.761719 L 37.640625 13.761719 Z M 58.824219 20.707031 C 57.503906 20.707031 56.292969 20.488281 55.195312 20.046875 C 54.097656 19.609375 53.152344 18.992188 52.363281 18.203125 C 51.574219 17.414062 50.960938 16.492188 50.523438 15.4375 C 50.085938 14.382812 49.867188 13.242188 49.867188 12.015625 C 49.867188 10.785156 50.085938 9.636719 50.523438 8.574219 C 50.960938 7.515625 51.574219 6.59375 52.363281 5.8125 C 53.152344 5.027344 54.097656 4.417969 55.195312 3.980469 C 56.292969 3.542969 57.503906 3.320312 58.824219 3.320312 C 60.164062 3.320312 61.375 3.542969 62.464844 3.980469 C 63.558594 4.417969 64.503906 5.027344 65.296875 5.8125 C 66.09375 6.59375 66.707031 7.515625 67.136719 8.574219 C 67.566406 9.636719 67.78125 10.785156 67.78125 12.015625 C 67.78125 13.242188 67.566406 14.382812 67.136719 15.4375 C 66.707031 16.492188 66.09375 17.414062 65.296875 18.203125 C 64.503906 18.992188 63.558594 19.609375 62.464844 20.046875 C 61.375 20.488281 60.164062 20.707031 58.824219 20.707031 Z M 58.824219 16.921875 C 59.476562 16.921875 60.070312 16.796875 60.601562 16.550781 C 61.136719 16.304688 61.597656 15.953125 61.988281 15.496094 C 62.378906 15.042969 62.675781 14.519531 62.871094 13.929688 C 63.070312 13.339844 63.171875 12.699219 63.171875 12.015625 C 63.171875 11.328125 63.070312 10.683594 62.871094 10.082031 C 62.675781 9.488281 62.378906 8.964844 61.988281 8.515625 C 61.597656 8.070312 61.136719 7.722656 60.601562 7.472656 C 60.070312 7.226562 59.476562 7.105469 58.824219 7.105469 C 58.1875 7.105469 57.597656 7.226562 57.058594 7.472656 C 56.515625 7.722656 56.054688 8.070312 55.671875 8.515625 C 55.289062 8.964844 54.996094 9.488281 54.789062 10.082031 C 54.582031 10.683594 54.476562 11.328125 54.476562 12.015625 C 54.476562 12.699219 54.582031 13.339844 54.789062 13.929688 C 54.996094 14.519531 55.289062 15.042969 55.671875 15.496094 C 56.054688 15.953125 56.515625 16.304688 57.058594 16.550781 C 57.597656 16.796875 58.1875 16.921875 58.824219 16.921875 Z M 77.71875 20.394531 L 69.882812 20.394531 L 69.882812 16.683594 L 77.003906 16.683594 C 77.304688 16.683594 77.5625 16.621094 77.777344 16.492188 C 77.992188 16.363281 78.164062 16.1875 78.292969 15.964844 C 78.417969 15.742188 78.484375 15.503906 78.484375 15.246094 C 78.484375 14.976562 78.417969 14.726562 78.292969 14.503906 C 78.164062 14.28125 77.992188 14.105469 77.777344 13.976562 C 77.5625 13.851562 77.304688 13.785156 77.003906 13.785156 L 74.636719 13.785156 C 73.632812 13.785156 72.726562 13.585938 71.914062 13.1875 C 71.101562 12.789062 70.453125 12.214844 69.964844 11.472656 C 69.480469 10.730469 69.238281 9.835938 69.238281 8.78125 C 69.238281 7.742188 69.46875 6.839844 69.933594 6.074219 C 70.394531 5.308594 71.015625 4.710938 71.796875 4.277344 C 72.574219 3.847656 73.441406 3.632812 74.398438 3.632812 L 81.898438 3.632812 L 81.898438 7.34375 L 74.972656 7.34375 C 74.71875 7.34375 74.488281 7.402344 74.289062 7.519531 C 74.089844 7.644531 73.9375 7.800781 73.824219 7.992188 C 73.714844 8.183594 73.65625 8.398438 73.65625 8.636719 C 73.65625 8.875 73.714844 9.09375 73.824219 9.292969 C 73.9375 9.496094 74.089844 9.652344 74.289062 9.773438 C 74.488281 9.894531 74.71875 9.953125 74.972656 9.953125 L 77.480469 9.953125 C 78.59375 9.953125 79.558594 10.160156 80.371094 10.578125 C 81.183594 10.992188 81.8125 11.570312 82.257812 12.3125 C 82.703125 13.054688 82.925781 13.929688 82.925781 14.933594 C 82.925781 16.085938 82.691406 17.070312 82.21875 17.890625 C 81.75 18.714844 81.121094 19.335938 80.332031 19.757812 C 79.546875 20.183594 78.675781 20.394531 77.71875 20.394531 Z M 95.628906 20.394531 L 93.789062 20.394531 C 92.753906 20.394531 91.835938 20.167969 91.03125 19.710938 C 90.226562 19.257812 89.597656 18.640625 89.144531 17.855469 C 88.691406 17.074219 88.460938 16.195312 88.460938 15.222656 L 88.460938 7.34375 L 84.019531 7.34375 L 84.019531 3.632812 L 97.394531 3.632812 L 97.394531 7.34375 L 93.023438 7.34375 L 93.023438 15.535156 C 93.023438 15.855469 93.136719 16.125 93.359375 16.347656 C 93.582031 16.570312 93.84375 16.683594 94.148438 16.683594 L 95.628906 16.683594 Z M 103.582031 20.394531 L 99.019531 20.394531 L 99.019531 3.632812 L 103.582031 3.632812 L 103.582031 10.050781 L 109.363281 10.050781 L 109.363281 3.632812 L 113.921875 3.632812 L 113.921875 20.394531 L 109.363281 20.394531 L 109.363281 13.761719 L 103.582031 13.761719 Z M 126.152344 20.394531 L 116.097656 20.394531 L 116.097656 16.683594 L 118.820312 16.683594 L 118.820312 7.34375 L 116.097656 7.34375 L 116.097656 3.632812 L 126.152344 3.632812 L 126.152344 7.34375 L 123.40625 7.34375 L 123.40625 16.683594 L 126.152344 16.683594 Z M 135.851562 20.707031 C 135.023438 20.707031 134.28125 20.511719 133.628906 20.117188 C 132.976562 19.726562 132.507812 19.148438 132.21875 18.382812 L 127.058594 3.632812 L 131.886719 3.632812 L 135.609375 16.109375 C 135.644531 16.171875 135.679688 16.230469 135.714844 16.277344 C 135.757812 16.324219 135.800781 16.347656 135.851562 16.347656 C 135.914062 16.347656 135.96875 16.324219 136.015625 16.277344 C 136.066406 16.230469 136.097656 16.171875 136.113281 16.109375 L 139.839844 3.632812 L 144.640625 3.632812 L 139.503906 18.359375 C 139.21875 19.140625 138.742188 19.726562 138.082031 20.117188 C 137.421875 20.511719 136.679688 20.707031 135.851562 20.707031 Z M 157.796875 20.394531 L 150.535156 20.394531 C 149.59375 20.394531 148.734375 20.183594 147.957031 19.757812 C 147.175781 19.335938 146.558594 18.753906 146.105469 18.011719 C 145.652344 17.269531 145.421875 16.429688 145.421875 15.488281 C 145.421875 14.769531 145.582031 14.089844 145.902344 13.449219 C 146.21875 12.8125 146.664062 12.269531 147.238281 11.824219 C 146.730469 11.390625 146.320312 10.875 146.011719 10.273438 C 145.699219 9.679688 145.542969 9.058594 145.542969 8.421875 C 145.542969 7.496094 145.765625 6.671875 146.210938 5.953125 C 146.65625 5.238281 147.261719 4.667969 148.027344 4.253906 C 148.792969 3.839844 149.628906 3.632812 150.535156 3.632812 L 157.796875 3.632812 L 157.796875 7.34375 L 151.441406 7.34375 C 151.15625 7.34375 150.898438 7.398438 150.667969 7.511719 C 150.4375 7.625 150.253906 7.78125 150.121094 7.992188 C 149.980469 8.199219 149.914062 8.445312 149.914062 8.734375 C 149.914062 9.003906 149.980469 9.238281 150.121094 9.4375 C 150.253906 9.636719 150.4375 9.796875 150.667969 9.917969 C 150.898438 10.039062 151.15625 10.097656 151.441406 10.097656 L 156.960938 10.097656 L 156.960938 13.785156 L 151.488281 13.785156 C 151.1875 13.785156 150.917969 13.84375 150.679688 13.964844 C 150.4375 14.085938 150.253906 14.257812 150.121094 14.480469 C 149.980469 14.703125 149.914062 14.960938 149.914062 15.246094 C 149.914062 15.535156 149.980469 15.785156 150.121094 16 C 150.253906 16.214844 150.4375 16.382812 150.679688 16.5 C 150.917969 16.625 151.1875 16.683594 151.488281 16.683594 L 157.796875 16.683594 Z M 157.796875 20.394531 "/>
</g>
<g clip-path="url(#clip2)" clip-rule="nonzero">
<path style=" stroke:none;fill-rule:nonzero;fill:rgb(100%,100%,100%);fill-opacity:1;" d="M 4.0625 9.589844 C 6.160156 10.082031 8.949219 10.382812 12.015625 10.382812 C 16.753906 10.382812 20.835938 9.664062 22.710938 8.632812 L 23.320312 4.535156 C 21.226562 5.246094 17.640625 5.714844 13.566406 5.714844 C 7.105469 5.714844 1.867188 4.535156 1.867188 3.078125 C 1.867188 1.621094 7.105469 0.4375 13.566406 0.4375 C 16.445312 0.4375 19.078125 0.671875 21.117188 1.0625 C 18.960938 0.414062 15.589844 0 11.796875 0 C 5.285156 0 0.0078125 1.226562 0.0078125 2.734375 C 0.0078125 2.773438 0.015625 2.808594 0.0195312 2.847656 L 0.835938 8.316406 C 1.238281 8.625 1.832031 8.910156 2.578125 9.167969 C 1.640625 9.535156 1.097656 9.964844 1.097656 10.421875 C 1.097656 10.453125 1.105469 10.488281 1.109375 10.519531 L 1.847656 15.449219 C 2.277344 15.78125 2.949219 16.109375 3.808594 16.410156 C 2.652344 16.777344 1.972656 17.234375 1.972656 17.726562 C 1.972656 17.757812 1.976562 17.785156 1.984375 17.816406 L 1.980469 17.816406 L 2.65625 21.742188 C 3.945312 22.730469 7.589844 24.027344 11.886719 24.027344 C 15.800781 24.027344 19.023438 23.144531 20.570312 22.292969 L 21.222656 18.480469 C 19.492188 19.066406 15.65625 20.183594 12.292969 20.183594 C 6.957031 20.183594 3.507812 19.207031 3.507812 18.007812 C 3.507812 17.5625 4.101562 17.148438 5.121094 16.800781 C 6.96875 17.277344 9.347656 17.605469 11.945312 17.605469 C 16.222656 17.605469 19.910156 16.667969 21.601562 15.734375 L 22.15625 11.605469 C 20.261719 12.246094 17.023438 13.109375 13.34375 13.109375 C 7.507812 13.109375 2.777344 12.042969 2.777344 10.730469 C 2.777344 10.316406 3.242188 9.925781 4.0625 9.589844 Z M 4.0625 9.589844 "/>
</g>
</g>
</svg>
